<mxfile host="Electron" modified="2023-11-12T06:22:54.115Z" agent="Mozilla/5.0 (Windows NT 10.0; Win64; x64) AppleWebKit/537.36 (KHTML, like Gecko) draw.io/22.0.3 Chrome/114.0.5735.289 Electron/25.8.4 Safari/537.36" etag="9vY9j-vaq76fx0uWmAW6" version="22.0.3" type="device">
  <diagram name="Trang-1" id="wxNzTAk28ykf4LgzRhvq">
    <mxGraphModel dx="898" dy="543" grid="1" gridSize="10" guides="1" tooltips="1" connect="1" arrows="1" fold="1" page="1" pageScale="1" pageWidth="1169" pageHeight="1654" math="0" shadow="0">
      <root>
        <mxCell id="0" />
        <mxCell id="1" parent="0" />
        <mxCell id="v54T6xPFnGA2U_vexo2_-3" value="" style="edgeStyle=orthogonalEdgeStyle;rounded=0;orthogonalLoop=1;jettySize=auto;html=1;" edge="1" parent="1" source="v54T6xPFnGA2U_vexo2_-1" target="v54T6xPFnGA2U_vexo2_-2">
          <mxGeometry relative="1" as="geometry" />
        </mxCell>
        <mxCell id="v54T6xPFnGA2U_vexo2_-1" value="start" style="ellipse;whiteSpace=wrap;html=1;" vertex="1" parent="1">
          <mxGeometry x="430" y="150" width="120" height="80" as="geometry" />
        </mxCell>
        <mxCell id="v54T6xPFnGA2U_vexo2_-5" value="" style="edgeStyle=orthogonalEdgeStyle;rounded=0;orthogonalLoop=1;jettySize=auto;html=1;" edge="1" parent="1" source="v54T6xPFnGA2U_vexo2_-2" target="v54T6xPFnGA2U_vexo2_-4">
          <mxGeometry relative="1" as="geometry" />
        </mxCell>
        <mxCell id="v54T6xPFnGA2U_vexo2_-2" value="nhập lương" style="shape=parallelogram;perimeter=parallelogramPerimeter;whiteSpace=wrap;html=1;fixedSize=1;" vertex="1" parent="1">
          <mxGeometry x="430" y="280" width="120" height="60" as="geometry" />
        </mxCell>
        <mxCell id="v54T6xPFnGA2U_vexo2_-7" value="" style="edgeStyle=orthogonalEdgeStyle;rounded=0;orthogonalLoop=1;jettySize=auto;html=1;" edge="1" parent="1" source="v54T6xPFnGA2U_vexo2_-4">
          <mxGeometry relative="1" as="geometry">
            <mxPoint x="630" y="450" as="targetPoint" />
          </mxGeometry>
        </mxCell>
        <mxCell id="v54T6xPFnGA2U_vexo2_-10" value="" style="edgeStyle=orthogonalEdgeStyle;rounded=0;orthogonalLoop=1;jettySize=auto;html=1;" edge="1" parent="1" source="v54T6xPFnGA2U_vexo2_-4" target="v54T6xPFnGA2U_vexo2_-9">
          <mxGeometry relative="1" as="geometry" />
        </mxCell>
        <mxCell id="v54T6xPFnGA2U_vexo2_-4" value="0&amp;lt;l&amp;lt;5" style="rhombus;whiteSpace=wrap;html=1;" vertex="1" parent="1">
          <mxGeometry x="430" y="410" width="120" height="80" as="geometry" />
        </mxCell>
        <mxCell id="v54T6xPFnGA2U_vexo2_-41" style="edgeStyle=orthogonalEdgeStyle;rounded=0;orthogonalLoop=1;jettySize=auto;html=1;exitX=1;exitY=0.5;exitDx=0;exitDy=0;entryX=1;entryY=0.5;entryDx=0;entryDy=0;" edge="1" parent="1" source="v54T6xPFnGA2U_vexo2_-8" target="v54T6xPFnGA2U_vexo2_-39">
          <mxGeometry relative="1" as="geometry">
            <Array as="points">
              <mxPoint x="1060" y="450" />
              <mxPoint x="1060" y="1550" />
            </Array>
          </mxGeometry>
        </mxCell>
        <mxCell id="v54T6xPFnGA2U_vexo2_-8" value="thuế = lương*0.5&lt;br&gt;lươnt thực tế = lương - thuế" style="shape=parallelogram;perimeter=parallelogramPerimeter;whiteSpace=wrap;html=1;fixedSize=1;" vertex="1" parent="1">
          <mxGeometry x="620" y="420" width="170" height="60" as="geometry" />
        </mxCell>
        <mxCell id="v54T6xPFnGA2U_vexo2_-12" value="" style="edgeStyle=orthogonalEdgeStyle;rounded=0;orthogonalLoop=1;jettySize=auto;html=1;" edge="1" parent="1" source="v54T6xPFnGA2U_vexo2_-9">
          <mxGeometry relative="1" as="geometry">
            <mxPoint x="490" y="730" as="targetPoint" />
          </mxGeometry>
        </mxCell>
        <mxCell id="v54T6xPFnGA2U_vexo2_-9" value="0&amp;lt;l&amp;lt;5" style="rhombus;whiteSpace=wrap;html=1;" vertex="1" parent="1">
          <mxGeometry x="430" y="570" width="120" height="80" as="geometry" />
        </mxCell>
        <mxCell id="v54T6xPFnGA2U_vexo2_-15" value="" style="edgeStyle=orthogonalEdgeStyle;rounded=0;orthogonalLoop=1;jettySize=auto;html=1;" edge="1" parent="1" source="v54T6xPFnGA2U_vexo2_-13">
          <mxGeometry relative="1" as="geometry">
            <mxPoint x="630" y="610" as="targetPoint" />
          </mxGeometry>
        </mxCell>
        <mxCell id="v54T6xPFnGA2U_vexo2_-13" value="5&amp;lt;l&amp;lt;10" style="rhombus;whiteSpace=wrap;html=1;" vertex="1" parent="1">
          <mxGeometry x="430" y="570" width="120" height="80" as="geometry" />
        </mxCell>
        <mxCell id="v54T6xPFnGA2U_vexo2_-42" style="edgeStyle=orthogonalEdgeStyle;rounded=0;orthogonalLoop=1;jettySize=auto;html=1;exitX=1;exitY=0.5;exitDx=0;exitDy=0;entryX=1;entryY=0;entryDx=0;entryDy=0;" edge="1" parent="1" source="v54T6xPFnGA2U_vexo2_-16" target="v54T6xPFnGA2U_vexo2_-39">
          <mxGeometry relative="1" as="geometry">
            <Array as="points">
              <mxPoint x="1020" y="620" />
              <mxPoint x="1020" y="1522" />
            </Array>
          </mxGeometry>
        </mxCell>
        <mxCell id="v54T6xPFnGA2U_vexo2_-16" value="thuế = lương*0.1&lt;br&gt;lương thực tế =lương -thuế" style="shape=parallelogram;perimeter=parallelogramPerimeter;whiteSpace=wrap;html=1;fixedSize=1;" vertex="1" parent="1">
          <mxGeometry x="620" y="590" width="180" height="60" as="geometry" />
        </mxCell>
        <mxCell id="v54T6xPFnGA2U_vexo2_-19" value="" style="edgeStyle=orthogonalEdgeStyle;rounded=0;orthogonalLoop=1;jettySize=auto;html=1;" edge="1" parent="1" source="v54T6xPFnGA2U_vexo2_-17" target="v54T6xPFnGA2U_vexo2_-18">
          <mxGeometry relative="1" as="geometry" />
        </mxCell>
        <mxCell id="v54T6xPFnGA2U_vexo2_-21" value="" style="edgeStyle=orthogonalEdgeStyle;rounded=0;orthogonalLoop=1;jettySize=auto;html=1;" edge="1" parent="1" source="v54T6xPFnGA2U_vexo2_-17" target="v54T6xPFnGA2U_vexo2_-20">
          <mxGeometry relative="1" as="geometry" />
        </mxCell>
        <mxCell id="v54T6xPFnGA2U_vexo2_-17" value="10&amp;lt;l&amp;lt;18" style="rhombus;whiteSpace=wrap;html=1;" vertex="1" parent="1">
          <mxGeometry x="400" y="730" width="180" height="80" as="geometry" />
        </mxCell>
        <mxCell id="v54T6xPFnGA2U_vexo2_-43" style="edgeStyle=orthogonalEdgeStyle;rounded=0;orthogonalLoop=1;jettySize=auto;html=1;exitX=1;exitY=0.5;exitDx=0;exitDy=0;entryX=1;entryY=1;entryDx=0;entryDy=0;" edge="1" parent="1" source="v54T6xPFnGA2U_vexo2_-18" target="v54T6xPFnGA2U_vexo2_-39">
          <mxGeometry relative="1" as="geometry">
            <Array as="points">
              <mxPoint x="1000" y="770" />
              <mxPoint x="1000" y="1578" />
            </Array>
          </mxGeometry>
        </mxCell>
        <mxCell id="v54T6xPFnGA2U_vexo2_-18" value="thuế = lương*0.15&lt;br&gt;lương thực tế =lương -thuế" style="shape=parallelogram;perimeter=parallelogramPerimeter;whiteSpace=wrap;html=1;fixedSize=1;" vertex="1" parent="1">
          <mxGeometry x="690" y="740" width="190" height="60" as="geometry" />
        </mxCell>
        <mxCell id="v54T6xPFnGA2U_vexo2_-24" value="" style="edgeStyle=orthogonalEdgeStyle;rounded=0;orthogonalLoop=1;jettySize=auto;html=1;" edge="1" parent="1" source="v54T6xPFnGA2U_vexo2_-20">
          <mxGeometry relative="1" as="geometry">
            <mxPoint x="679" y="930" as="targetPoint" />
          </mxGeometry>
        </mxCell>
        <mxCell id="v54T6xPFnGA2U_vexo2_-27" value="" style="edgeStyle=orthogonalEdgeStyle;rounded=0;orthogonalLoop=1;jettySize=auto;html=1;" edge="1" parent="1" source="v54T6xPFnGA2U_vexo2_-20" target="v54T6xPFnGA2U_vexo2_-26">
          <mxGeometry relative="1" as="geometry" />
        </mxCell>
        <mxCell id="v54T6xPFnGA2U_vexo2_-20" value="18&amp;lt;l&amp;lt;32" style="rhombus;whiteSpace=wrap;html=1;" vertex="1" parent="1">
          <mxGeometry x="410" y="890" width="160" height="80" as="geometry" />
        </mxCell>
        <mxCell id="v54T6xPFnGA2U_vexo2_-44" style="edgeStyle=orthogonalEdgeStyle;rounded=0;orthogonalLoop=1;jettySize=auto;html=1;exitX=1;exitY=0.5;exitDx=0;exitDy=0;entryX=1;entryY=0.5;entryDx=0;entryDy=0;" edge="1" parent="1" source="v54T6xPFnGA2U_vexo2_-25" target="v54T6xPFnGA2U_vexo2_-39">
          <mxGeometry relative="1" as="geometry">
            <Array as="points">
              <mxPoint x="970" y="940" />
              <mxPoint x="970" y="1550" />
            </Array>
          </mxGeometry>
        </mxCell>
        <mxCell id="v54T6xPFnGA2U_vexo2_-25" value="thuế = lương*0.2&lt;br&gt;lương thực tế =lương -thuế" style="shape=parallelogram;perimeter=parallelogramPerimeter;whiteSpace=wrap;html=1;fixedSize=1;" vertex="1" parent="1">
          <mxGeometry x="670" y="910" width="210" height="60" as="geometry" />
        </mxCell>
        <mxCell id="v54T6xPFnGA2U_vexo2_-29" value="" style="edgeStyle=orthogonalEdgeStyle;rounded=0;orthogonalLoop=1;jettySize=auto;html=1;" edge="1" parent="1" source="v54T6xPFnGA2U_vexo2_-26" target="v54T6xPFnGA2U_vexo2_-28">
          <mxGeometry relative="1" as="geometry" />
        </mxCell>
        <mxCell id="v54T6xPFnGA2U_vexo2_-31" value="" style="edgeStyle=orthogonalEdgeStyle;rounded=0;orthogonalLoop=1;jettySize=auto;html=1;" edge="1" parent="1" source="v54T6xPFnGA2U_vexo2_-26" target="v54T6xPFnGA2U_vexo2_-30">
          <mxGeometry relative="1" as="geometry" />
        </mxCell>
        <mxCell id="v54T6xPFnGA2U_vexo2_-26" value="32&amp;lt;l&amp;lt;52&lt;br&gt;" style="rhombus;whiteSpace=wrap;html=1;" vertex="1" parent="1">
          <mxGeometry x="420" y="1050" width="140" height="80" as="geometry" />
        </mxCell>
        <mxCell id="v54T6xPFnGA2U_vexo2_-28" value="thuế = lương*0.25&lt;br&gt;lương thực tế =lương -thuế" style="shape=parallelogram;perimeter=parallelogramPerimeter;whiteSpace=wrap;html=1;fixedSize=1;" vertex="1" parent="1">
          <mxGeometry x="650" y="1060" width="230" height="60" as="geometry" />
        </mxCell>
        <mxCell id="v54T6xPFnGA2U_vexo2_-33" value="" style="edgeStyle=orthogonalEdgeStyle;rounded=0;orthogonalLoop=1;jettySize=auto;html=1;" edge="1" parent="1" source="v54T6xPFnGA2U_vexo2_-30" target="v54T6xPFnGA2U_vexo2_-32">
          <mxGeometry relative="1" as="geometry" />
        </mxCell>
        <mxCell id="v54T6xPFnGA2U_vexo2_-35" value="" style="edgeStyle=orthogonalEdgeStyle;rounded=0;orthogonalLoop=1;jettySize=auto;html=1;" edge="1" parent="1" source="v54T6xPFnGA2U_vexo2_-30">
          <mxGeometry relative="1" as="geometry">
            <mxPoint x="490" y="1380" as="targetPoint" />
          </mxGeometry>
        </mxCell>
        <mxCell id="v54T6xPFnGA2U_vexo2_-30" value="52&amp;lt;l&amp;lt;80" style="rhombus;whiteSpace=wrap;html=1;" vertex="1" parent="1">
          <mxGeometry x="420" y="1210" width="140" height="80" as="geometry" />
        </mxCell>
        <mxCell id="v54T6xPFnGA2U_vexo2_-32" value="thuế = lương*0.3&lt;br&gt;lương thực tế =lương -thuế" style="shape=parallelogram;perimeter=parallelogramPerimeter;whiteSpace=wrap;html=1;fixedSize=1;" vertex="1" parent="1">
          <mxGeometry x="650" y="1220" width="190" height="60" as="geometry" />
        </mxCell>
        <mxCell id="v54T6xPFnGA2U_vexo2_-38" value="" style="edgeStyle=orthogonalEdgeStyle;rounded=0;orthogonalLoop=1;jettySize=auto;html=1;" edge="1" parent="1" source="v54T6xPFnGA2U_vexo2_-36" target="v54T6xPFnGA2U_vexo2_-37">
          <mxGeometry relative="1" as="geometry" />
        </mxCell>
        <mxCell id="v54T6xPFnGA2U_vexo2_-40" value="" style="edgeStyle=orthogonalEdgeStyle;rounded=0;orthogonalLoop=1;jettySize=auto;html=1;" edge="1" parent="1" source="v54T6xPFnGA2U_vexo2_-36" target="v54T6xPFnGA2U_vexo2_-39">
          <mxGeometry relative="1" as="geometry" />
        </mxCell>
        <mxCell id="v54T6xPFnGA2U_vexo2_-36" value="l&amp;gt;80" style="rhombus;whiteSpace=wrap;html=1;" vertex="1" parent="1">
          <mxGeometry x="435" y="1380" width="110" height="80" as="geometry" />
        </mxCell>
        <mxCell id="v54T6xPFnGA2U_vexo2_-37" value="thuế = lương*0.3&lt;br&gt;lương thực tế =lương -thuế" style="shape=parallelogram;perimeter=parallelogramPerimeter;whiteSpace=wrap;html=1;fixedSize=1;" vertex="1" parent="1">
          <mxGeometry x="620" y="1390" width="180" height="60" as="geometry" />
        </mxCell>
        <mxCell id="v54T6xPFnGA2U_vexo2_-39" value="end&lt;br&gt;" style="ellipse;whiteSpace=wrap;html=1;" vertex="1" parent="1">
          <mxGeometry x="430" y="1510" width="120" height="80" as="geometry" />
        </mxCell>
        <mxCell id="v54T6xPFnGA2U_vexo2_-46" style="edgeStyle=orthogonalEdgeStyle;rounded=0;orthogonalLoop=1;jettySize=auto;html=1;exitX=1;exitY=0.5;exitDx=0;exitDy=0;entryX=0.917;entryY=0.875;entryDx=0;entryDy=0;entryPerimeter=0;" edge="1" parent="1" source="v54T6xPFnGA2U_vexo2_-28" target="v54T6xPFnGA2U_vexo2_-39">
          <mxGeometry relative="1" as="geometry">
            <Array as="points">
              <mxPoint x="960" y="1090" />
              <mxPoint x="960" y="1580" />
            </Array>
          </mxGeometry>
        </mxCell>
        <mxCell id="v54T6xPFnGA2U_vexo2_-47" style="edgeStyle=orthogonalEdgeStyle;rounded=0;orthogonalLoop=1;jettySize=auto;html=1;exitX=1;exitY=0.5;exitDx=0;exitDy=0;entryX=1.039;entryY=0.423;entryDx=0;entryDy=0;entryPerimeter=0;" edge="1" parent="1" source="v54T6xPFnGA2U_vexo2_-32" target="v54T6xPFnGA2U_vexo2_-39">
          <mxGeometry relative="1" as="geometry">
            <Array as="points">
              <mxPoint x="930" y="1250" />
              <mxPoint x="930" y="1544" />
            </Array>
          </mxGeometry>
        </mxCell>
        <mxCell id="v54T6xPFnGA2U_vexo2_-48" style="edgeStyle=orthogonalEdgeStyle;rounded=0;orthogonalLoop=1;jettySize=auto;html=1;exitX=1;exitY=0.5;exitDx=0;exitDy=0;entryX=0.973;entryY=0.777;entryDx=0;entryDy=0;entryPerimeter=0;" edge="1" parent="1" source="v54T6xPFnGA2U_vexo2_-37" target="v54T6xPFnGA2U_vexo2_-39">
          <mxGeometry relative="1" as="geometry">
            <Array as="points">
              <mxPoint x="890" y="1420" />
              <mxPoint x="890" y="1572" />
            </Array>
          </mxGeometry>
        </mxCell>
      </root>
    </mxGraphModel>
  </diagram>
</mxfile>
